<?xml version="1.0" encoding="utf-8"?>
<!-- Generator: Adobe Illustrator 22.0.0, SVG Export Plug-In . SVG Version: 6.00 Build 0)  -->
<svg version="1.1" id="Capa_1" xmlns="http://www.w3.org/2000/svg" xmlns:xlink="http://www.w3.org/1999/xlink" x="0px" y="0px"
	 viewBox="0 0 480 480" style="enable-background:new 0 0 480 480;" xml:space="preserve">
<style type="text/css">
	.st0{fill:#3C3C3C;}
</style>
<g>
	<g>
		<rect x="104" y="400" class="st0" width="16" height="16"/>
	</g>
</g>
<g>
	<g>
		<rect x="72" y="400" class="st0" width="16" height="16"/>
	</g>
</g>
<g>
	<g>
		<rect x="104" y="368" class="st0" width="16" height="16"/>
	</g>
</g>
<g>
	<g>
		<rect x="72" y="368" class="st0" width="16" height="16"/>
	</g>
</g>
<g>
	<g>
		<rect x="136" y="368" class="st0" width="16" height="16"/>
	</g>
</g>
<g>
	<g>
		<rect x="168" y="368" class="st0" width="16" height="16"/>
	</g>
</g>
<g>
	<g>
		<rect x="200" y="368" class="st0" width="16" height="16"/>
	</g>
</g>
<g>
	<g>
		<rect x="232" y="368" class="st0" width="16" height="16"/>
	</g>
</g>
<g>
	<g>
		<rect x="264" y="368" class="st0" width="16" height="16"/>
	</g>
</g>
<g>
	<g>
		<rect x="296" y="368" class="st0" width="16" height="16"/>
	</g>
</g>
<g>
	<g>
		<rect x="328" y="368" class="st0" width="16" height="16"/>
	</g>
</g>
<g>
	<g>
		<rect x="360" y="368" class="st0" width="16" height="16"/>
	</g>
</g>
<g>
	<g>
		<rect x="392" y="368" class="st0" width="16" height="16"/>
	</g>
</g>
<g>
	<g>
		<rect x="104" y="336" class="st0" width="16" height="16"/>
	</g>
</g>
<g>
	<g>
		<rect x="136" y="336" class="st0" width="16" height="16"/>
	</g>
</g>
<g>
	<g>
		<rect x="168" y="336" class="st0" width="16" height="16"/>
	</g>
</g>
<g>
	<g>
		<rect x="200" y="336" class="st0" width="16" height="16"/>
	</g>
</g>
<g>
	<g>
		<rect x="232" y="336" class="st0" width="16" height="16"/>
	</g>
</g>
<g>
	<g>
		<rect x="264" y="336" class="st0" width="16" height="16"/>
	</g>
</g>
<g>
	<g>
		<rect x="296" y="336" class="st0" width="16" height="16"/>
	</g>
</g>
<g>
	<g>
		<rect x="328" y="336" class="st0" width="16" height="16"/>
	</g>
</g>
<g>
	<g>
		<rect x="360" y="336" class="st0" width="16" height="16"/>
	</g>
</g>
<g>
	<g>
		<rect x="136" y="400" class="st0" width="16" height="16"/>
	</g>
</g>
<g>
	<g>
		<rect x="168" y="400" class="st0" width="144" height="16"/>
	</g>
</g>
<g>
	<g>
		<rect x="328" y="400" class="st0" width="16" height="16"/>
	</g>
</g>
<g>
	<g>
		<rect x="392" y="400" class="st0" width="16" height="16"/>
	</g>
</g>
<g>
	<g>
		<rect x="360" y="400" class="st0" width="16" height="16"/>
	</g>
</g>
<g>
	<g>
		<rect x="96" y="32" class="st0" width="16" height="16"/>
	</g>
</g>
<g>
	<g>
		<rect x="128" y="32" class="st0" width="16" height="16"/>
	</g>
</g>
<g>
	<g>
		<rect x="160" y="32" class="st0" width="16" height="16"/>
	</g>
</g>
<g>
	<g>
		<path class="st0" d="M133.7,109.7l-11.3-11.3l-16,16c-3.1,3.1-3.1,8.2,0,11.3l16,16l11.3-11.3L123.3,120L133.7,109.7z"/>
	</g>
</g>
<g>
	<g>
		<path class="st0" d="M197.7,114.3l-16-16l-11.3,11.3l10.3,10.3l-10.3,10.3l11.3,11.3l16-16C200.8,122.5,200.8,117.5,197.7,114.3z"
			/>
	</g>
</g>
<g>
	<g>
		
			<rect x="126.7" y="112" transform="matrix(0.3164 -0.9486 0.9486 0.3164 -9.9351 226.2233)" class="st0" width="50.6" height="16"/>
	</g>
</g>
<g>
	<g>
		<rect x="216" y="128" class="st0" width="16" height="16"/>
	</g>
</g>
<g>
	<g>
		<rect x="104" y="160" class="st0" width="16" height="16"/>
	</g>
</g>
<g>
	<g>
		<rect x="104" y="192" class="st0" width="16" height="16"/>
	</g>
</g>
<g>
	<g>
		<rect x="104" y="224" class="st0" width="16" height="16"/>
	</g>
</g>
<g>
	<g>
		<rect x="136" y="160" class="st0" width="192" height="16"/>
	</g>
</g>
<g>
	<g>
		<rect x="248" y="128" class="st0" width="16" height="16"/>
	</g>
</g>
<g>
	<g>
		<rect x="280" y="128" class="st0" width="16" height="16"/>
	</g>
</g>
<g>
	<g>
		<rect x="312" y="128" class="st0" width="16" height="16"/>
	</g>
</g>
<g>
	<g>
		<rect x="136" y="192" class="st0" width="32" height="16"/>
	</g>
</g>
<g>
	<g>
		<rect x="136" y="224" class="st0" width="32" height="16"/>
	</g>
</g>
<g>
	<g>
		<rect x="184" y="224" class="st0" width="32" height="16"/>
	</g>
</g>
<g>
	<g>
		<rect x="184" y="192" class="st0" width="32" height="16"/>
	</g>
</g>
<g>
	<g>
		<rect x="232" y="192" class="st0" width="32" height="16"/>
	</g>
</g>
<g>
	<g>
		<rect x="344" y="160" class="st0" width="32" height="16"/>
	</g>
</g>
<g>
	<g>
		<rect y="264" class="st0" width="16" height="16"/>
	</g>
</g>
<g>
	<g>
		<path class="st0" d="M464,208v112c0,8.8-7.2,16-16,16h-9.8l-6.5-25.9c-0.9-3.6-4.1-6.1-7.8-6.1H56c-3.7,0-6.9,2.5-7.8,6.1
			L41.8,336H32c-8.8,0-16-7.2-16-16v-24H0v24c0,17.7,14.3,32,32,32h5.8l-21.5,86.1l0.1,0c-0.2,0.6-0.3,1.3-0.4,1.9v32
			c0,4.4,3.6,8,8,8h432c4.4,0,8-3.6,8-8v-32c0-0.6-0.2-1.3-0.4-1.9l0.1,0L442.2,352h5.8c17.7,0,32-14.3,32-32V208H464z M448,464H32
			v-16h416V464z M445.8,432H34.2l28-112h355.5L445.8,432z"/>
	</g>
</g>
<g>
	<g>
		<rect x="464" y="176" class="st0" width="16" height="16"/>
	</g>
</g>
<g>
	<g>
		<path class="st0" d="M448,96h-32V32c0-17.7-14.3-32-32-32H96C78.3,0,64,14.3,64,32v64H32c-17.7,0-32,14.3-32,32v120h16V128
			c0-8.8,7.2-16,16-16h32v136c0,17.7,14.3,32,32,32h288c17.7,0,32-14.3,32-32V112h32c8.8,0,16,7.2,16,16v32h16v-32
			C480,110.3,465.7,96,448,96z M400,248c0,8.8-7.2,16-16,16H96c-8.8,0-16-7.2-16-16V80h320V248z M400,64H80V32c0-8.8,7.2-16,16-16
			h288c8.8,0,16,7.2,16,16V64z"/>
	</g>
</g>
</svg>
