<?xml version="1.0" encoding="utf-8"?>
<!-- Generator: Adobe Illustrator 22.0.0, SVG Export Plug-In . SVG Version: 6.00 Build 0)  -->
<svg version="1.1" id="Capa_1" xmlns="http://www.w3.org/2000/svg" xmlns:xlink="http://www.w3.org/1999/xlink" x="0px" y="0px"
	 viewBox="0 0 512 512" style="enable-background:new 0 0 512 512;" xml:space="preserve">
<style type="text/css">
	.st0{fill:#3C3C3C;}
</style>
<g>
	<g>
		<path class="st0" d="M266.6,0c-71.9,0-126.8,20-163,59.4c-31,35.9-47.4,82.1-45.9,129.5L6,265.1c-3.9,5.8-6,12.6-6,19.6
			C0,304.2,15.7,320,35.2,320h26.5c-2.8,26.4-4.6,83.6,30.9,95.5c20.3,5.6,41.5,6.9,62.2,3.6L128.5,498c-0.4,1.1-0.5,2.2-0.5,3.4
			c0,5.9,4.8,10.7,10.7,10.7h96v-21.3h-81.2l27.3-82c0.6-1.9,0.7-4,0.2-5.9c-1.4-5.7-7.2-9.2-12.9-7.8c-0.5,0.1-40.1,9.7-68.7,0.2
			c-20.9-7-19.1-59.7-14.9-84.1c0.1-0.6,0.2-1.2,0.2-1.8c0-5.9-4.8-10.7-10.7-10.7H35.2c-2.7,0-5.4-0.8-7.7-2.3
			c-6.4-4.3-8.1-12.9-3.8-19.2L77.3,198c1.4-2,2-4.4,1.8-6.9c-0.1-0.7-4.9-68.4,40.3-117.4c30.3-32.8,76.2-50.4,136.5-52.2V128h21.3
			V10.7C277.3,4.8,272.5,0,266.6,0z"/>
	</g>
</g>
<g>
	<g>
		<path class="st0" d="M448,458.7L448,458.7c0,17.7-14.3,32-32,32s-32-14.3-32-32V37.3C384,16.7,367.3,0,346.6,0
			s-37.3,16.7-37.3,37.3v437.3c0,8.8-7.2,16-16,16s-16-7.2-16-16v-112H256v112c0,20.6,16.7,37.3,37.3,37.3
			c20.6,0,37.3-16.7,37.3-37.3V37.3c0-8.8,7.2-16,16-16s16,7.2,16,16v421.3c0,29.4,23.9,53.3,53.3,53.3c29.4,0,53.3-23.9,53.3-53.3
			L448,458.7L448,458.7z"/>
	</g>
</g>
<g>
	<g>
		<path class="st0" d="M501.3,330.7H416c-1.1,0-2.3,0.2-3.4,0.5c-5.6,1.9-8.6,7.9-6.7,13.5l32,96c1.5,4.4,5.5,7.3,10.1,7.3h21.3
			c4.6,0,8.7-2.9,10.1-7.3l32-96c0.4-1.1,0.5-2.2,0.5-3.4C512,335.5,507.2,330.7,501.3,330.7z M461.6,426.7h-6L430.8,352h55.7
			L461.6,426.7z"/>
	</g>
</g>
<g>
	<g>
		<rect x="426.6" y="384" class="st0" width="64" height="21.3"/>
	</g>
</g>
<g>
	<g>
		<rect x="448" y="128" class="st0" width="21.3" height="213.3"/>
	</g>
</g>
<g>
	<g>
		<rect x="490.6" y="53.3" class="st0" width="21.3" height="288"/>
	</g>
</g>
<g>
	<g>
		<rect x="405.3" y="53.3" class="st0" width="21.3" height="288"/>
	</g>
</g>
<g>
	<g>
		<path class="st0" d="M458.6,0c-29.5,0-53.3,23.9-53.3,53.3h21.3c0-17.7,14.3-32,32-32s32,14.3,32,32H512C512,23.9,488.1,0,458.6,0
			z"/>
	</g>
</g>
<g>
	<g>
		<rect x="416" y="74.7" class="st0" width="85.3" height="21.3"/>
	</g>
</g>
<g>
	<g>
		<rect x="416" y="117.3" class="st0" width="85.3" height="21.3"/>
	</g>
</g>
<g>
	<g>
		<rect x="213.3" y="85.3" class="st0" width="21.3" height="42.7"/>
	</g>
</g>
<g>
	<g>
		<rect x="213.3" y="149.3" class="st0" width="21.3" height="21.3"/>
	</g>
</g>
<g>
	<g>
		<rect x="213.3" y="192" class="st0" width="21.3" height="21.3"/>
	</g>
</g>
<g>
	<g>
		<rect x="213.3" y="234.7" class="st0" width="21.3" height="21.3"/>
	</g>
</g>
<g>
	<g>
		<rect x="170.6" y="85.3" class="st0" width="21.3" height="42.7"/>
	</g>
</g>
<g>
	<g>
		<rect x="170.6" y="149.3" class="st0" width="21.3" height="21.3"/>
	</g>
</g>
<g>
	<g>
		<rect x="170.6" y="192" class="st0" width="21.3" height="21.3"/>
	</g>
</g>
<g>
	<g>
		<rect x="170.6" y="234.7" class="st0" width="21.3" height="42.7"/>
	</g>
</g>
<g>
	<g>
		<rect x="213.3" y="277.3" class="st0" width="21.3" height="21.3"/>
	</g>
</g>
<g>
	<g>
		<rect x="213.3" y="320" class="st0" width="21.3" height="42.7"/>
	</g>
</g>
<g>
	<g>
		<rect x="256" y="149.3" class="st0" width="21.3" height="21.3"/>
	</g>
</g>
<g>
	<g>
		<rect x="256" y="192" class="st0" width="21.3" height="21.3"/>
	</g>
</g>
<g>
	<g>
		<rect x="256" y="234.7" class="st0" width="21.3" height="21.3"/>
	</g>
</g>
<g>
	<g>
		<rect x="256" y="277.3" class="st0" width="21.3" height="21.3"/>
	</g>
</g>
<g>
	<g>
		<rect x="256" y="320" class="st0" width="21.3" height="21.3"/>
	</g>
</g>
</svg>
